<svg width="60" height="60" viewBox="0 0 60 60" fill="none" xmlns="http://www.w3.org/2000/svg">
<path d="M49.166 20.0851C49.1934 21.925 48.5863 23.4586 47.3504 24.6834C46.1145 25.9081 44.6325 26.5342 42.9071 26.5588C41.1571 26.5834 39.6477 25.9792 38.3763 24.7408C37.1048 23.5051 36.4567 22.0124 36.4321 20.2628C36.4075 18.5378 37.0145 17.0396 38.2505 15.7684C39.4864 14.4972 40.9794 13.8493 42.7293 13.8247C44.4547 13.8001 45.9532 14.407 47.2246 15.6427C48.4934 16.8811 49.1414 18.3601 49.166 20.0851Z" fill="#26DE81"/>
<path d="M32.0279 26.4853C34.5844 24.699 37.2284 23.8059 39.9599 23.8059C41.5678 23.8059 42.8522 24.0565 43.8134 24.5558C44.7727 25.0552 45.4784 25.8678 45.9268 26.9918C46.3752 28.1158 46.6003 29.6282 46.6003 31.5272V39.2307H49.8553V43.7661H40.3154V32.1286C40.3154 30.167 39.4293 29.1861 37.6589 29.1861C36.3869 29.1861 34.8845 29.6175 33.1498 30.4802V39.2325H36.3673V43.7679H26.8649V32.3362C26.8649 30.2368 26.011 29.1879 24.3013 29.1879C23.0918 29.1879 21.5823 29.6193 19.7743 30.482V39.2342H22.9918V43.7697H10.272V39.2342H13.4894V28.6832H10.272V24.0726H19.7743V25.721C21.8449 24.4467 23.9637 23.8095 26.1342 23.8095C28.6657 23.8041 30.6308 24.6972 32.0279 26.4853Z" fill="#09351B"/>
</svg>
